<svg xmlns="http://www.w3.org/2000/svg" xmlns:xlink="http://www.w3.org/1999/xlink" width="700" zoomAndPan="magnify" viewBox="0 0 525 299.999988" height="400" preserveAspectRatio="xMidYMid meet" version="1.0"><defs><clipPath id="id1"><path d="M 427.078125 55.667969 L 472.828125 55.667969 L 472.828125 117 L 427.078125 117 Z M 427.078125 55.667969 " clip-rule="nonzero"/></clipPath><clipPath id="id2"><path d="M 68.648438 50.847656 L 155.648438 50.847656 L 155.648438 116.847656 L 68.648438 116.847656 Z M 68.648438 50.847656 " clip-rule="nonzero"/></clipPath><clipPath id="id3"><path d="M 68.648438 50.847656 L 98 50.847656 L 98 116.847656 L 68.648438 116.847656 Z M 68.648438 50.847656 " clip-rule="nonzero"/></clipPath><clipPath id="id4"><path d="M 127 50.847656 L 155.648438 50.847656 L 155.648438 63 L 127 63 Z M 127 50.847656 " clip-rule="nonzero"/></clipPath><clipPath id="id5"><path d="M 127 74 L 155.648438 74 L 155.648438 116.847656 L 127 116.847656 Z M 127 74 " clip-rule="nonzero"/></clipPath><clipPath id="id6"><path d="M 387.359375 196.859375 L 480.800781 196.859375 L 480.800781 283.109375 L 387.359375 283.109375 Z M 387.359375 196.859375 " clip-rule="nonzero"/></clipPath><clipPath id="id7"><path d="M 392.078125 218.796875 L 474.382812 218.796875 L 474.382812 283.109375 L 392.078125 283.109375 Z M 392.078125 218.796875 " clip-rule="nonzero"/></clipPath><clipPath id="id8"><path d="M 398.117188 197.046875 L 480.957031 197.046875 L 480.957031 283.109375 L 398.117188 283.109375 Z M 398.117188 197.046875 " clip-rule="nonzero"/></clipPath></defs><rect x="-52.5" width="630" fill="#ffffff" y="-29.999999" height="359.999986" fill-opacity="1"/><rect x="-52.5" width="630" fill="#d6e3f3" y="-29.999999" height="359.999986" fill-opacity="1"/><rect x="-52.5" width="630" fill="#ffffff" y="-29.999999" height="359.999986" fill-opacity="1"/><rect x="-52.5" width="630" fill="#d6e3f3" y="-29.999999" height="359.999986" fill-opacity="1"/><g clip-path="url(#id1)"><path fill="#cb6ce6" d="M 461.660156 55.910156 C 460.894531 55.792969 460.082031 55.972656 459.414062 56.476562 C 458.066406 57.476562 457.785156 59.390625 458.777344 60.746094 C 463.929688 67.773438 466.769531 76.886719 466.769531 86.417969 C 466.769531 95.949219 463.929688 105.066406 458.777344 112.09375 C 457.785156 113.449219 458.066406 115.363281 459.414062 116.367188 C 459.953125 116.773438 460.585938 116.960938 461.210938 116.960938 C 462.140625 116.960938 463.054688 116.535156 463.648438 115.726562 C 469.566406 107.65625 472.828125 97.246094 472.828125 86.417969 C 472.828125 75.589844 469.566406 65.183594 463.648438 57.113281 C 463.152344 56.4375 462.429688 56.027344 461.660156 55.910156 Z M 451.472656 62.136719 C 450.703125 62.035156 449.898438 62.230469 449.234375 62.746094 C 447.90625 63.773438 447.652344 65.691406 448.671875 67.03125 C 452.46875 72.015625 454.648438 79.082031 454.648438 86.417969 C 454.648438 93.738281 452.480469 100.796875 448.695312 105.78125 C 447.679688 107.121094 447.933594 109.039062 449.261719 110.058594 C 449.8125 110.484375 450.457031 110.691406 451.097656 110.691406 C 452.007812 110.691406 452.90625 110.277344 453.507812 109.492188 C 458.148438 103.375 460.707031 95.179688 460.707031 86.417969 C 460.707031 77.632812 458.140625 69.429688 453.476562 63.308594 C 452.964844 62.636719 452.238281 62.238281 451.472656 62.136719 Z M 441.316406 68.253906 C 440.542969 68.199219 439.75 68.445312 439.121094 69.003906 C 437.859375 70.113281 437.734375 72.042969 438.835938 73.3125 C 441.117188 75.9375 442.53125 80.960938 442.53125 86.417969 C 442.53125 91.875 441.113281 96.898438 438.832031 99.523438 C 437.730469 100.796875 437.859375 102.722656 439.121094 103.832031 C 439.695312 104.339844 440.410156 104.589844 441.113281 104.589844 C 441.960938 104.589844 442.800781 104.238281 443.398438 103.546875 C 446.648438 99.800781 448.589844 93.394531 448.589844 86.417969 C 448.589844 79.441406 446.644531 73.035156 443.394531 69.289062 C 442.84375 68.652344 442.089844 68.304688 441.316406 68.253906 Z M 430.605469 74.773438 C 429.832031 74.722656 429.039062 74.96875 428.410156 75.523438 C 427.152344 76.636719 427.027344 78.566406 428.132812 79.832031 C 429.578125 81.496094 430.410156 83.898438 430.410156 86.417969 C 430.410156 88.9375 429.578125 91.339844 428.132812 93.003906 C 427.027344 94.273438 427.160156 96.199219 428.414062 97.3125 C 428.992188 97.820312 429.703125 98.070312 430.410156 98.070312 C 431.25 98.070312 432.089844 97.71875 432.6875 97.03125 C 435.128906 94.230469 436.46875 90.460938 436.46875 86.417969 C 436.46875 82.378906 435.128906 78.605469 432.6875 75.804688 C 432.136719 75.171875 431.378906 74.824219 430.605469 74.773438 Z M 430.605469 74.773438 " fill-opacity="1" fill-rule="nonzero"/></g><path fill="#ffb6c3" d="M 95.691406 170.304688 L 144.457031 170.304688 C 144.777344 170.304688 145.097656 170.335938 145.410156 170.398438 C 145.722656 170.460938 146.027344 170.554688 146.324219 170.675781 C 146.621094 170.800781 146.902344 170.949219 147.167969 171.128906 C 147.433594 171.304688 147.679688 171.507812 147.90625 171.734375 C 148.132812 171.960938 148.335938 172.207031 148.511719 172.472656 C 148.691406 172.738281 148.839844 173.019531 148.964844 173.316406 C 149.085938 173.613281 149.179688 173.917969 149.242188 174.230469 C 149.304688 174.542969 149.335938 174.859375 149.335938 175.179688 C 149.335938 175.5 149.304688 175.820312 149.242188 176.132812 C 149.179688 176.445312 149.085938 176.75 148.964844 177.046875 C 148.839844 177.34375 148.691406 177.625 148.511719 177.890625 C 148.335938 178.15625 148.132812 178.402344 147.90625 178.628906 C 147.679688 178.855469 147.433594 179.058594 147.167969 179.234375 C 146.902344 179.414062 146.621094 179.5625 146.324219 179.683594 C 146.027344 179.808594 145.722656 179.898438 145.410156 179.960938 C 145.097656 180.023438 144.777344 180.054688 144.457031 180.054688 L 95.691406 180.054688 C 95.371094 180.054688 95.054688 180.023438 94.738281 179.960938 C 94.425781 179.898438 94.121094 179.808594 93.824219 179.683594 C 93.527344 179.5625 93.246094 179.414062 92.980469 179.234375 C 92.714844 179.058594 92.46875 178.855469 92.242188 178.628906 C 92.015625 178.402344 91.8125 178.15625 91.636719 177.890625 C 91.457031 177.625 91.308594 177.34375 91.183594 177.046875 C 91.0625 176.75 90.96875 176.445312 90.90625 176.132812 C 90.84375 175.820312 90.8125 175.5 90.8125 175.179688 C 90.8125 174.859375 90.84375 174.542969 90.90625 174.230469 C 90.96875 173.917969 91.0625 173.613281 91.183594 173.316406 C 91.308594 173.019531 91.457031 172.738281 91.636719 172.472656 C 91.8125 172.207031 92.015625 171.960938 92.242188 171.734375 C 92.46875 171.507812 92.714844 171.304688 92.980469 171.128906 C 93.246094 170.949219 93.527344 170.800781 93.824219 170.675781 C 94.121094 170.554688 94.425781 170.460938 94.738281 170.398438 C 95.054688 170.335938 95.371094 170.304688 95.691406 170.304688 Z M 163.964844 170.304688 L 212.734375 170.304688 C 213.054688 170.304688 213.371094 170.335938 213.6875 170.398438 C 214 170.460938 214.304688 170.554688 214.601562 170.675781 C 214.894531 170.800781 215.175781 170.949219 215.445312 171.128906 C 215.710938 171.304688 215.957031 171.507812 216.183594 171.734375 C 216.410156 171.960938 216.609375 172.207031 216.789062 172.472656 C 216.96875 172.738281 217.117188 173.019531 217.238281 173.316406 C 217.363281 173.613281 217.453125 173.917969 217.515625 174.230469 C 217.578125 174.542969 217.609375 174.859375 217.609375 175.179688 C 217.609375 175.5 217.578125 175.820312 217.515625 176.132812 C 217.453125 176.445312 217.363281 176.75 217.238281 177.046875 C 217.117188 177.34375 216.96875 177.625 216.789062 177.890625 C 216.609375 178.15625 216.410156 178.402344 216.183594 178.628906 C 215.957031 178.855469 215.710938 179.058594 215.445312 179.234375 C 215.175781 179.414062 214.894531 179.5625 214.601562 179.683594 C 214.304688 179.808594 214 179.898438 213.6875 179.960938 C 213.371094 180.023438 213.054688 180.054688 212.734375 180.054688 L 163.964844 180.054688 C 163.644531 180.054688 163.328125 180.023438 163.015625 179.960938 C 162.699219 179.898438 162.394531 179.808594 162.101562 179.683594 C 161.804688 179.5625 161.523438 179.414062 161.257812 179.234375 C 160.992188 179.058594 160.742188 178.855469 160.515625 178.628906 C 160.292969 178.402344 160.089844 178.15625 159.910156 177.890625 C 159.734375 177.625 159.582031 177.34375 159.460938 177.046875 C 159.335938 176.75 159.246094 176.445312 159.183594 176.132812 C 159.121094 175.820312 159.089844 175.5 159.089844 175.179688 C 159.089844 174.859375 159.121094 174.542969 159.183594 174.230469 C 159.246094 173.917969 159.335938 173.613281 159.460938 173.316406 C 159.582031 173.019531 159.734375 172.738281 159.910156 172.472656 C 160.089844 172.207031 160.292969 171.960938 160.515625 171.734375 C 160.742188 171.507812 160.992188 171.304688 161.257812 171.128906 C 161.523438 170.949219 161.804688 170.800781 162.101562 170.675781 C 162.394531 170.554688 162.699219 170.460938 163.015625 170.398438 C 163.328125 170.335938 163.644531 170.304688 163.964844 170.304688 Z M 232.242188 170.304688 L 281.011719 170.304688 C 281.332031 170.304688 281.648438 170.335938 281.960938 170.398438 C 282.273438 170.460938 282.582031 170.554688 282.875 170.675781 C 283.171875 170.800781 283.453125 170.949219 283.71875 171.128906 C 283.984375 171.304688 284.230469 171.507812 284.457031 171.734375 C 284.683594 171.960938 284.886719 172.207031 285.066406 172.472656 C 285.242188 172.738281 285.394531 173.019531 285.515625 173.316406 C 285.636719 173.613281 285.730469 173.917969 285.792969 174.230469 C 285.855469 174.542969 285.886719 174.859375 285.886719 175.179688 C 285.886719 175.5 285.855469 175.820312 285.792969 176.132812 C 285.730469 176.445312 285.636719 176.75 285.515625 177.046875 C 285.394531 177.34375 285.242188 177.625 285.066406 177.890625 C 284.886719 178.15625 284.683594 178.402344 284.457031 178.628906 C 284.230469 178.855469 283.984375 179.058594 283.71875 179.234375 C 283.453125 179.414062 283.171875 179.5625 282.875 179.683594 C 282.582031 179.808594 282.273438 179.898438 281.960938 179.960938 C 281.648438 180.023438 281.332031 180.054688 281.011719 180.054688 L 232.242188 180.054688 C 231.921875 180.054688 231.605469 180.023438 231.289062 179.960938 C 230.976562 179.898438 230.671875 179.808594 230.375 179.683594 C 230.078125 179.5625 229.796875 179.414062 229.53125 179.234375 C 229.265625 179.058594 229.019531 178.855469 228.792969 178.628906 C 228.566406 178.402344 228.363281 178.15625 228.1875 177.890625 C 228.007812 177.625 227.859375 177.34375 227.734375 177.046875 C 227.613281 176.75 227.519531 176.445312 227.457031 176.132812 C 227.394531 175.820312 227.363281 175.5 227.363281 175.179688 C 227.363281 174.859375 227.394531 174.542969 227.457031 174.230469 C 227.519531 173.917969 227.613281 173.613281 227.734375 173.316406 C 227.859375 173.019531 228.007812 172.738281 228.1875 172.472656 C 228.363281 172.207031 228.566406 171.960938 228.792969 171.734375 C 229.019531 171.507812 229.265625 171.304688 229.53125 171.128906 C 229.796875 170.949219 230.078125 170.800781 230.375 170.675781 C 230.671875 170.554688 230.976562 170.460938 231.289062 170.398438 C 231.605469 170.335938 231.921875 170.304688 232.242188 170.304688 Z M 300.515625 170.304688 L 349.285156 170.304688 C 349.605469 170.304688 349.921875 170.335938 350.238281 170.398438 C 350.550781 170.460938 350.855469 170.554688 351.152344 170.675781 C 351.449219 170.800781 351.730469 170.949219 351.996094 171.128906 C 352.261719 171.304688 352.507812 171.507812 352.734375 171.734375 C 352.960938 171.960938 353.164062 172.207031 353.339844 172.472656 C 353.519531 172.738281 353.667969 173.019531 353.792969 173.316406 C 353.914062 173.613281 354.007812 173.917969 354.070312 174.230469 C 354.132812 174.542969 354.164062 174.859375 354.164062 175.179688 C 354.164062 175.5 354.132812 175.820312 354.070312 176.132812 C 354.007812 176.445312 353.914062 176.75 353.792969 177.046875 C 353.667969 177.34375 353.519531 177.625 353.339844 177.890625 C 353.164062 178.15625 352.960938 178.402344 352.734375 178.628906 C 352.507812 178.855469 352.261719 179.058594 351.996094 179.234375 C 351.730469 179.414062 351.449219 179.5625 351.152344 179.683594 C 350.855469 179.808594 350.550781 179.898438 350.238281 179.960938 C 349.921875 180.023438 349.605469 180.054688 349.285156 180.054688 L 300.515625 180.054688 C 300.195312 180.054688 299.878906 180.023438 299.566406 179.960938 C 299.25 179.898438 298.945312 179.808594 298.652344 179.683594 C 298.355469 179.5625 298.074219 179.414062 297.808594 179.234375 C 297.542969 179.058594 297.296875 178.855469 297.070312 178.628906 C 296.84375 178.402344 296.640625 178.15625 296.460938 177.890625 C 296.285156 177.625 296.132812 177.34375 296.011719 177.046875 C 295.890625 176.75 295.796875 176.445312 295.734375 176.132812 C 295.671875 175.820312 295.640625 175.5 295.640625 175.179688 C 295.640625 174.859375 295.671875 174.542969 295.734375 174.230469 C 295.796875 173.917969 295.890625 173.613281 296.011719 173.316406 C 296.132812 173.019531 296.285156 172.738281 296.460938 172.472656 C 296.640625 172.207031 296.84375 171.960938 297.070312 171.734375 C 297.296875 171.507812 297.542969 171.304688 297.808594 171.128906 C 298.074219 170.949219 298.355469 170.800781 298.652344 170.675781 C 298.945312 170.554688 299.25 170.460938 299.566406 170.398438 C 299.878906 170.335938 300.195312 170.304688 300.515625 170.304688 Z M 368.792969 170.304688 L 417.5625 170.304688 C 417.882812 170.304688 418.199219 170.335938 418.511719 170.398438 C 418.828125 170.460938 419.132812 170.554688 419.425781 170.675781 C 419.722656 170.800781 420.003906 170.949219 420.269531 171.128906 C 420.535156 171.304688 420.78125 171.507812 421.007812 171.734375 C 421.234375 171.960938 421.4375 172.207031 421.617188 172.472656 C 421.792969 172.738281 421.945312 173.019531 422.066406 173.316406 C 422.1875 173.613281 422.28125 173.917969 422.34375 174.230469 C 422.40625 174.542969 422.4375 174.859375 422.4375 175.179688 C 422.4375 175.5 422.40625 175.820312 422.34375 176.132812 C 422.28125 176.445312 422.1875 176.75 422.066406 177.046875 C 421.945312 177.34375 421.792969 177.625 421.617188 177.890625 C 421.4375 178.15625 421.234375 178.402344 421.007812 178.628906 C 420.78125 178.855469 420.535156 179.058594 420.269531 179.234375 C 420.003906 179.414062 419.722656 179.5625 419.425781 179.683594 C 419.132812 179.808594 418.828125 179.898438 418.511719 179.960938 C 418.199219 180.023438 417.882812 180.054688 417.5625 180.054688 L 368.792969 180.054688 C 368.472656 180.054688 368.15625 180.023438 367.839844 179.960938 C 367.527344 179.898438 367.222656 179.808594 366.925781 179.683594 C 366.628906 179.5625 366.347656 179.414062 366.082031 179.234375 C 365.816406 179.058594 365.570312 178.855469 365.34375 178.628906 C 365.117188 178.402344 364.914062 178.15625 364.738281 177.890625 C 364.558594 177.625 364.410156 177.34375 364.289062 177.046875 C 364.164062 176.75 364.070312 176.445312 364.007812 176.132812 C 363.945312 175.820312 363.914062 175.5 363.914062 175.179688 C 363.914062 174.859375 363.945312 174.542969 364.007812 174.230469 C 364.070312 173.917969 364.164062 173.613281 364.289062 173.316406 C 364.410156 173.019531 364.558594 172.738281 364.738281 172.472656 C 364.914062 172.207031 365.117188 171.960938 365.34375 171.734375 C 365.570312 171.507812 365.816406 171.304688 366.082031 171.128906 C 366.347656 170.949219 366.628906 170.800781 366.925781 170.675781 C 367.222656 170.554688 367.527344 170.460938 367.839844 170.398438 C 368.15625 170.335938 368.472656 170.304688 368.792969 170.304688 Z M 368.792969 170.304688 " fill-opacity="1" fill-rule="nonzero"/><path fill="#5ea5fd" d="M 95.695312 201.734375 L 144.523438 201.734375 C 144.84375 201.734375 145.160156 201.765625 145.476562 201.824219 C 145.789062 201.886719 146.09375 201.980469 146.390625 202.105469 C 146.6875 202.226562 146.96875 202.375 147.234375 202.554688 C 147.5 202.730469 147.746094 202.933594 147.976562 203.160156 C 148.203125 203.386719 148.402344 203.632812 148.582031 203.898438 C 148.761719 204.164062 148.910156 204.445312 149.03125 204.742188 C 149.15625 205.039062 149.25 205.34375 149.3125 205.65625 C 149.375 205.96875 149.40625 206.289062 149.40625 206.609375 C 149.40625 206.925781 149.375 207.246094 149.3125 207.558594 C 149.25 207.871094 149.15625 208.175781 149.03125 208.472656 C 148.910156 208.769531 148.761719 209.050781 148.582031 209.316406 C 148.402344 209.582031 148.203125 209.828125 147.976562 210.054688 C 147.746094 210.28125 147.5 210.484375 147.234375 210.660156 C 146.96875 210.839844 146.6875 210.988281 146.390625 211.113281 C 146.09375 211.234375 145.789062 211.328125 145.476562 211.390625 C 145.160156 211.453125 144.84375 211.484375 144.523438 211.484375 L 95.695312 211.484375 C 95.375 211.484375 95.058594 211.453125 94.742188 211.390625 C 94.429688 211.328125 94.125 211.234375 93.828125 211.113281 C 93.53125 210.988281 93.25 210.839844 92.984375 210.660156 C 92.71875 210.484375 92.46875 210.28125 92.242188 210.054688 C 92.015625 209.828125 91.816406 209.582031 91.636719 209.316406 C 91.457031 209.050781 91.308594 208.769531 91.183594 208.472656 C 91.0625 208.175781 90.96875 207.871094 90.90625 207.558594 C 90.84375 207.246094 90.8125 206.925781 90.8125 206.609375 C 90.8125 206.289062 90.84375 205.96875 90.90625 205.65625 C 90.96875 205.34375 91.0625 205.039062 91.183594 204.742188 C 91.308594 204.445312 91.457031 204.164062 91.636719 203.898438 C 91.816406 203.632812 92.015625 203.386719 92.242188 203.160156 C 92.46875 202.933594 92.71875 202.730469 92.984375 202.554688 C 93.25 202.375 93.53125 202.226562 93.828125 202.105469 C 94.125 201.980469 94.429688 201.886719 94.742188 201.824219 C 95.058594 201.765625 95.375 201.734375 95.695312 201.734375 Z M 164.050781 201.734375 L 212.878906 201.734375 C 213.199219 201.734375 213.515625 201.765625 213.832031 201.824219 C 214.144531 201.886719 214.449219 201.980469 214.746094 202.105469 C 215.042969 202.226562 215.324219 202.375 215.589844 202.554688 C 215.859375 202.730469 216.105469 202.933594 216.332031 203.160156 C 216.558594 203.386719 216.761719 203.632812 216.9375 203.898438 C 217.117188 204.164062 217.265625 204.445312 217.390625 204.742188 C 217.511719 205.039062 217.605469 205.34375 217.667969 205.65625 C 217.730469 205.96875 217.761719 206.289062 217.761719 206.609375 C 217.761719 206.925781 217.730469 207.246094 217.667969 207.558594 C 217.605469 207.871094 217.511719 208.175781 217.390625 208.472656 C 217.265625 208.769531 217.117188 209.050781 216.9375 209.316406 C 216.761719 209.582031 216.558594 209.828125 216.332031 210.054688 C 216.105469 210.28125 215.859375 210.484375 215.589844 210.660156 C 215.324219 210.839844 215.042969 210.988281 214.746094 211.113281 C 214.449219 211.234375 214.144531 211.328125 213.832031 211.390625 C 213.515625 211.453125 213.199219 211.484375 212.878906 211.484375 L 164.050781 211.484375 C 163.730469 211.484375 163.414062 211.453125 163.101562 211.390625 C 162.785156 211.328125 162.480469 211.234375 162.183594 211.113281 C 161.886719 210.988281 161.605469 210.839844 161.339844 210.660156 C 161.074219 210.484375 160.828125 210.28125 160.601562 210.054688 C 160.375 209.828125 160.171875 209.582031 159.992188 209.316406 C 159.816406 209.050781 159.664062 208.769531 159.542969 208.472656 C 159.417969 208.175781 159.328125 207.871094 159.265625 207.558594 C 159.203125 207.246094 159.167969 206.925781 159.167969 206.609375 C 159.167969 206.289062 159.203125 205.96875 159.265625 205.65625 C 159.328125 205.34375 159.417969 205.039062 159.542969 204.742188 C 159.664062 204.445312 159.816406 204.164062 159.992188 203.898438 C 160.171875 203.632812 160.375 203.386719 160.601562 203.160156 C 160.828125 202.933594 161.074219 202.730469 161.339844 202.554688 C 161.605469 202.375 161.886719 202.226562 162.183594 202.105469 C 162.480469 201.980469 162.785156 201.886719 163.101562 201.824219 C 163.414062 201.765625 163.730469 201.734375 164.050781 201.734375 Z M 232.410156 201.734375 L 281.234375 201.734375 C 281.554688 201.734375 281.871094 201.765625 282.1875 201.824219 C 282.5 201.886719 282.808594 201.980469 283.101562 202.105469 C 283.398438 202.226562 283.679688 202.375 283.949219 202.554688 C 284.214844 202.730469 284.460938 202.933594 284.6875 203.160156 C 284.914062 203.386719 285.117188 203.632812 285.292969 203.898438 C 285.472656 204.164062 285.625 204.445312 285.746094 204.742188 C 285.867188 205.039062 285.960938 205.34375 286.023438 205.65625 C 286.085938 205.96875 286.117188 206.289062 286.117188 206.609375 C 286.117188 206.925781 286.085938 207.246094 286.023438 207.558594 C 285.960938 207.871094 285.867188 208.175781 285.746094 208.472656 C 285.625 208.769531 285.472656 209.050781 285.292969 209.316406 C 285.117188 209.582031 284.914062 209.828125 284.6875 210.054688 C 284.460938 210.28125 284.214844 210.484375 283.949219 210.660156 C 283.679688 210.839844 283.398438 210.988281 283.101562 211.113281 C 282.808594 211.234375 282.5 211.328125 282.1875 211.390625 C 281.871094 211.453125 281.554688 211.484375 281.234375 211.484375 L 232.410156 211.484375 C 232.089844 211.484375 231.769531 211.453125 231.457031 211.390625 C 231.140625 211.328125 230.835938 211.234375 230.539062 211.113281 C 230.246094 210.988281 229.960938 210.839844 229.695312 210.660156 C 229.429688 210.484375 229.183594 210.28125 228.957031 210.054688 C 228.730469 209.828125 228.527344 209.582031 228.347656 209.316406 C 228.171875 209.050781 228.019531 208.769531 227.898438 208.472656 C 227.773438 208.175781 227.683594 207.871094 227.621094 207.558594 C 227.558594 207.246094 227.527344 206.925781 227.527344 206.609375 C 227.527344 206.289062 227.558594 205.96875 227.621094 205.65625 C 227.683594 205.34375 227.773438 205.039062 227.898438 204.742188 C 228.019531 204.445312 228.171875 204.164062 228.347656 203.898438 C 228.527344 203.632812 228.730469 203.386719 228.957031 203.160156 C 229.183594 202.933594 229.429688 202.730469 229.695312 202.554688 C 229.960938 202.375 230.246094 202.226562 230.539062 202.105469 C 230.835938 201.980469 231.140625 201.886719 231.457031 201.824219 C 231.769531 201.765625 232.089844 201.734375 232.410156 201.734375 Z M 232.410156 201.734375 " fill-opacity="1" fill-rule="nonzero"/><path fill="#5ea5fd" d="M 95.695312 239.925781 L 144.523438 239.925781 C 144.84375 239.925781 145.160156 239.957031 145.476562 240.019531 C 145.789062 240.082031 146.09375 240.175781 146.390625 240.296875 C 146.6875 240.417969 146.96875 240.570312 147.234375 240.746094 C 147.5 240.925781 147.746094 241.128906 147.976562 241.355469 C 148.203125 241.582031 148.402344 241.828125 148.582031 242.09375 C 148.761719 242.359375 148.910156 242.640625 149.03125 242.933594 C 149.15625 243.230469 149.25 243.535156 149.3125 243.851562 C 149.375 244.164062 149.40625 244.480469 149.40625 244.800781 C 149.40625 245.121094 149.375 245.4375 149.3125 245.753906 C 149.25 246.066406 149.15625 246.371094 149.03125 246.667969 C 148.910156 246.960938 148.761719 247.242188 148.582031 247.507812 C 148.402344 247.777344 148.203125 248.023438 147.976562 248.25 C 147.746094 248.472656 147.5 248.675781 147.234375 248.855469 C 146.96875 249.03125 146.6875 249.183594 146.390625 249.304688 C 146.09375 249.425781 145.789062 249.519531 145.476562 249.582031 C 145.160156 249.644531 144.84375 249.675781 144.523438 249.675781 L 95.695312 249.675781 C 95.375 249.675781 95.058594 249.644531 94.742188 249.582031 C 94.429688 249.519531 94.125 249.425781 93.828125 249.304688 C 93.53125 249.183594 93.25 249.03125 92.984375 248.855469 C 92.71875 248.675781 92.46875 248.472656 92.242188 248.25 C 92.015625 248.023438 91.816406 247.777344 91.636719 247.507812 C 91.457031 247.242188 91.308594 246.960938 91.183594 246.667969 C 91.0625 246.371094 90.96875 246.066406 90.90625 245.753906 C 90.84375 245.4375 90.8125 245.121094 90.8125 244.800781 C 90.8125 244.480469 90.84375 244.164062 90.90625 243.851562 C 90.96875 243.535156 91.0625 243.230469 91.183594 242.933594 C 91.308594 242.640625 91.457031 242.359375 91.636719 242.09375 C 91.816406 241.828125 92.015625 241.582031 92.242188 241.355469 C 92.46875 241.128906 92.71875 240.925781 92.984375 240.746094 C 93.25 240.570312 93.53125 240.417969 93.828125 240.296875 C 94.125 240.175781 94.429688 240.082031 94.742188 240.019531 C 95.058594 239.957031 95.375 239.925781 95.695312 239.925781 Z M 164.050781 239.925781 L 212.878906 239.925781 C 213.199219 239.925781 213.515625 239.957031 213.832031 240.019531 C 214.144531 240.082031 214.449219 240.175781 214.746094 240.296875 C 215.042969 240.417969 215.324219 240.570312 215.589844 240.746094 C 215.859375 240.925781 216.105469 241.128906 216.332031 241.355469 C 216.558594 241.582031 216.761719 241.828125 216.9375 242.09375 C 217.117188 242.359375 217.265625 242.640625 217.390625 242.933594 C 217.511719 243.230469 217.605469 243.535156 217.667969 243.851562 C 217.730469 244.164062 217.761719 244.480469 217.761719 244.800781 C 217.761719 245.121094 217.730469 245.4375 217.667969 245.753906 C 217.605469 246.066406 217.511719 246.371094 217.390625 246.667969 C 217.265625 246.960938 217.117188 247.242188 216.9375 247.507812 C 216.761719 247.777344 216.558594 248.023438 216.332031 248.25 C 216.105469 248.472656 215.859375 248.675781 215.589844 248.855469 C 215.324219 249.03125 215.042969 249.183594 214.746094 249.304688 C 214.449219 249.425781 214.144531 249.519531 213.832031 249.582031 C 213.515625 249.644531 213.199219 249.675781 212.878906 249.675781 L 164.050781 249.675781 C 163.730469 249.675781 163.414062 249.644531 163.101562 249.582031 C 162.785156 249.519531 162.480469 249.425781 162.183594 249.304688 C 161.886719 249.183594 161.605469 249.03125 161.339844 248.855469 C 161.074219 248.675781 160.828125 248.472656 160.601562 248.25 C 160.375 248.023438 160.171875 247.777344 159.992188 247.507812 C 159.816406 247.242188 159.664062 246.960938 159.542969 246.667969 C 159.417969 246.371094 159.328125 246.066406 159.265625 245.753906 C 159.203125 245.4375 159.167969 245.121094 159.167969 244.800781 C 159.167969 244.480469 159.203125 244.164062 159.265625 243.851562 C 159.328125 243.535156 159.417969 243.230469 159.542969 242.933594 C 159.664062 242.640625 159.816406 242.359375 159.992188 242.09375 C 160.171875 241.828125 160.375 241.582031 160.601562 241.355469 C 160.828125 241.128906 161.074219 240.925781 161.339844 240.746094 C 161.605469 240.570312 161.886719 240.417969 162.183594 240.296875 C 162.480469 240.175781 162.785156 240.082031 163.101562 240.019531 C 163.414062 239.957031 163.730469 239.925781 164.050781 239.925781 Z M 232.410156 239.925781 L 281.234375 239.925781 C 281.554688 239.925781 281.871094 239.957031 282.1875 240.019531 C 282.5 240.082031 282.808594 240.175781 283.101562 240.296875 C 283.398438 240.417969 283.679688 240.570312 283.949219 240.746094 C 284.214844 240.925781 284.460938 241.128906 284.6875 241.355469 C 284.914062 241.582031 285.117188 241.828125 285.292969 242.09375 C 285.472656 242.359375 285.625 242.640625 285.746094 242.933594 C 285.867188 243.230469 285.960938 243.535156 286.023438 243.851562 C 286.085938 244.164062 286.117188 244.480469 286.117188 244.800781 C 286.117188 245.121094 286.085938 245.4375 286.023438 245.753906 C 285.960938 246.066406 285.867188 246.371094 285.746094 246.667969 C 285.625 246.960938 285.472656 247.242188 285.292969 247.507812 C 285.117188 247.777344 284.914062 248.023438 284.6875 248.25 C 284.460938 248.472656 284.214844 248.675781 283.949219 248.855469 C 283.679688 249.03125 283.398438 249.183594 283.101562 249.304688 C 282.808594 249.425781 282.5 249.519531 282.1875 249.582031 C 281.871094 249.644531 281.554688 249.675781 281.234375 249.675781 L 232.410156 249.675781 C 232.089844 249.675781 231.769531 249.644531 231.457031 249.582031 C 231.140625 249.519531 230.835938 249.425781 230.539062 249.304688 C 230.246094 249.183594 229.960938 249.03125 229.695312 248.855469 C 229.429688 248.675781 229.183594 248.472656 228.957031 248.25 C 228.730469 248.023438 228.527344 247.777344 228.347656 247.507812 C 228.171875 247.242188 228.019531 246.960938 227.898438 246.667969 C 227.773438 246.371094 227.683594 246.066406 227.621094 245.753906 C 227.558594 245.4375 227.527344 245.121094 227.527344 244.800781 C 227.527344 244.480469 227.558594 244.164062 227.621094 243.851562 C 227.683594 243.535156 227.773438 243.230469 227.898438 242.933594 C 228.019531 242.640625 228.171875 242.359375 228.347656 242.09375 C 228.527344 241.828125 228.730469 241.582031 228.957031 241.355469 C 229.183594 241.128906 229.429688 240.925781 229.695312 240.746094 C 229.960938 240.570312 230.246094 240.417969 230.539062 240.296875 C 230.835938 240.175781 231.140625 240.082031 231.457031 240.019531 C 231.769531 239.957031 232.089844 239.925781 232.410156 239.925781 Z M 232.410156 239.925781 " fill-opacity="1" fill-rule="nonzero"/><g clip-path="url(#id2)"><path fill="#ffde59" d="M 145.148438 116.84375 L 79.148438 116.84375 C 73.347656 116.84375 68.648438 112.144531 68.648438 106.347656 L 68.648438 61.351562 C 68.648438 55.550781 73.347656 50.855469 79.148438 50.855469 L 145.148438 50.855469 C 150.949219 50.855469 155.648438 55.550781 155.648438 61.351562 L 155.648438 106.347656 C 155.648438 112.144531 150.949219 116.84375 145.148438 116.84375 " fill-opacity="1" fill-rule="nonzero"/></g><g clip-path="url(#id3)"><path fill="#e69f36" d="M 97.148438 50.855469 L 97.148438 116.84375 L 94.148438 116.84375 L 94.148438 107.847656 L 68.769531 107.847656 C 68.675781 107.367188 68.648438 106.855469 68.648438 106.347656 L 68.648438 104.847656 L 94.148438 104.847656 L 94.148438 92.847656 L 68.648438 92.847656 L 68.648438 89.847656 L 94.148438 89.847656 L 94.148438 77.851562 L 68.648438 77.851562 L 68.648438 74.851562 L 94.148438 74.851562 L 94.148438 62.851562 L 68.648438 62.851562 L 68.648438 61.351562 C 68.648438 60.84375 68.675781 60.332031 68.769531 59.851562 L 94.148438 59.851562 L 94.148438 50.855469 L 97.148438 50.855469 " fill-opacity="1" fill-rule="nonzero"/></g><g clip-path="url(#id4)"><path fill="#e69f36" d="M 155.648438 61.351562 L 155.648438 62.851562 L 130.148438 62.851562 C 128.5 62.851562 127.148438 61.503906 127.148438 59.851562 L 127.148438 50.855469 L 130.148438 50.855469 L 130.148438 59.851562 L 155.523438 59.851562 C 155.617188 60.332031 155.648438 60.84375 155.648438 61.351562 " fill-opacity="1" fill-rule="nonzero"/></g><g clip-path="url(#id5)"><path fill="#e69f36" d="M 130.148438 77.851562 L 130.148438 89.847656 L 155.648438 89.847656 L 155.648438 92.847656 L 130.148438 92.847656 L 130.148438 104.847656 L 155.648438 104.847656 L 155.648438 106.347656 C 155.648438 106.855469 155.617188 107.367188 155.523438 107.847656 L 130.148438 107.847656 L 130.148438 116.84375 L 127.148438 116.84375 L 127.148438 77.851562 C 127.148438 76.199219 128.5 74.851562 130.148438 74.851562 L 155.648438 74.851562 L 155.648438 77.851562 L 130.148438 77.851562 " fill-opacity="1" fill-rule="nonzero"/></g><g clip-path="url(#id6)"><path fill="#f03461" d="M 479.261719 218.859375 C 480.011719 218.988281 479.660156 220.121094 478.921875 219.996094 C 477.761719 219.796875 476.628906 219.515625 475.511719 219.152344 C 474.789062 218.914062 475.128906 217.78125 475.851562 218.015625 C 476.96875 218.382812 478.101562 218.664062 479.261719 218.859375 Z M 475.558594 214.460938 C 476.816406 214.121094 478.0625 213.730469 479.292969 213.296875 C 480.011719 213.042969 480.28125 214.195312 479.570312 214.445312 C 478.339844 214.882812 477.09375 215.269531 475.832031 215.613281 C 475.097656 215.8125 474.824219 214.664062 475.558594 214.460938 Z M 473.429688 212.003906 C 473.945312 210.925781 474.542969 209.898438 475.226562 208.914062 C 475.65625 208.289062 476.660156 208.917969 476.226562 209.546875 C 475.542969 210.527344 474.945312 211.558594 474.429688 212.636719 C 474.101562 213.324219 473.105469 212.6875 473.429688 212.003906 Z M 456.457031 199.929688 C 456.484375 199.757812 456.605469 199.570312 456.753906 199.480469 C 456.804688 199.449219 456.882812 199.414062 456.941406 199.433594 C 456.945312 199.433594 456.945312 199.433594 456.945312 199.433594 L 456.988281 199.449219 C 457.128906 199.5 457.144531 199.507812 457.210938 199.886719 C 457.257812 200.15625 457.324219 200.53125 457.566406 200.902344 C 457.585938 200.933594 457.675781 201.042969 457.773438 201.160156 C 457.882812 201.289062 458.042969 201.359375 458.210938 201.355469 C 458.378906 201.351562 458.535156 201.277344 458.636719 201.144531 L 460.378906 198.929688 C 460.015625 200.699219 459.089844 202.394531 457.792969 203.667969 L 456.789062 201.324219 C 456.609375 200.894531 456.382812 200.367188 456.457031 199.929688 Z M 455.886719 201.710938 L 455.707031 201.789062 L 457.066406 204.972656 C 457.125 205.117188 457.246094 205.222656 457.390625 205.265625 C 457.402344 205.269531 457.410156 205.269531 457.421875 205.273438 C 457.582031 205.3125 457.75 205.273438 457.875 205.167969 C 458.078125 204.996094 458.3125 204.800781 458.390625 204.730469 C 460.09375 203.160156 461.238281 201.046875 461.609375 198.777344 C 461.636719 198.605469 461.699219 198.210938 461.460938 197.863281 C 461.289062 197.613281 461.03125 197.472656 460.730469 197.460938 C 460.226562 197.445312 459.757812 197.808594 459.488281 198.152344 L 458.355469 199.589844 C 458.339844 199.5 458.324219 199.417969 458.3125 199.382812 C 458.226562 199.03125 458.027344 198.539062 457.304688 198.308594 C 456.738281 198.136719 456.105469 198.351562 455.667969 198.886719 C 455.476562 199.128906 455.34375 199.414062 455.292969 199.71875 C 455.15625 200.503906 455.460938 201.214844 455.707031 201.789062 Z M 425.746094 198.507812 C 425.773438 198.996094 425.59375 199.578125 425.445312 199.988281 C 425.183594 200.726562 424.914062 201.46875 424.632812 202.203125 C 424.59375 200.832031 424.988281 199.507812 425.746094 198.507812 Z M 466.488281 205.6875 C 466.363281 206.660156 465.574219 208.140625 464.445312 209.6875 C 465.203125 207.738281 466.09375 206.039062 466.488281 205.6875 Z M 470.417969 217.070312 C 470.660156 216.726562 470.988281 216.320312 471.378906 216.21875 C 471.464844 216.195312 471.574219 216.199219 471.671875 216.230469 C 471.683594 216.234375 471.695312 216.238281 471.707031 216.242188 C 471.753906 216.257812 471.796875 216.28125 471.835938 216.308594 C 471.929688 216.375 471.929688 216.429688 471.933594 216.445312 C 471.9375 216.566406 471.8125 216.78125 471.746094 216.894531 C 471.027344 218.132812 470.109375 219.125 469.148438 219.699219 C 469.390625 218.804688 469.828125 217.902344 470.417969 217.070312 Z M 479.144531 256.027344 C 478.472656 247.785156 476.328125 239.507812 471.742188 232.632812 C 469.515625 229.292969 466.753906 226.339844 463.796875 223.621094 C 460.3125 220.417969 456.449219 217.476562 451.96875 215.960938 C 448.496094 214.785156 444.789062 214.507812 441.125 214.480469 C 433.652344 214.421875 426.035156 215.402344 419.292969 218.625 C 418.804688 218.855469 418.253906 219.105469 417.648438 219.382812 C 420.230469 215.03125 422.519531 210.480469 424.464844 205.8125 C 424.957031 206.644531 425.617188 207.347656 426.375 207.847656 C 426.613281 208.003906 426.867188 208.15625 427.121094 208.304688 C 427.964844 208.804688 428.839844 209.320312 428.964844 210.101562 C 429.027344 210.492188 428.78125 210.914062 428.332031 211.171875 C 428.003906 211.367188 427.648438 211.425781 427.355469 211.335938 C 427.328125 211.328125 427.308594 211.328125 427.1875 211.25 C 426.945312 211.097656 426.628906 211.148438 426.449219 211.363281 L 426.402344 211.421875 C 426.308594 211.539062 426.261719 211.691406 426.28125 211.839844 C 426.300781 211.988281 426.378906 212.125 426.5 212.214844 C 426.792969 212.429688 426.839844 212.453125 426.863281 212.464844 C 427.453125 212.78125 428.125 212.875 428.855469 212.75 C 430.21875 212.511719 431.636719 211.472656 432.390625 210.164062 C 432.890625 209.296875 433.21875 208.359375 433.535156 207.449219 C 433.890625 206.421875 434.257812 205.363281 434.863281 204.5 C 435.128906 204.121094 435.671875 203.796875 436.007812 203.816406 C 436.101562 203.824219 436.132812 203.851562 436.164062 203.914062 C 436.207031 204 436.21875 204.164062 436.230469 204.308594 L 436.695312 210.863281 C 436.71875 211.164062 436.960938 211.398438 437.265625 211.402344 C 437.59375 211.410156 437.871094 211.167969 437.90625 210.839844 L 437.9375 210.589844 C 438.246094 207.957031 438.753906 205.011719 440.847656 203.40625 C 441.242188 203.101562 441.714844 202.976562 441.878906 203.128906 C 441.988281 203.234375 442.039062 203.488281 442.078125 203.71875 C 442.351562 205.382812 442.414062 207.078125 442.261719 208.757812 C 442.253906 208.847656 442.234375 209.019531 442.21875 209.179688 C 442.183594 209.5 442.402344 209.792969 442.714844 209.847656 C 443.027344 209.898438 443.332031 209.699219 443.40625 209.390625 C 443.460938 209.164062 443.527344 208.890625 443.570312 208.746094 C 444.207031 206.527344 445.457031 204.417969 447.085938 202.8125 C 447.1875 202.710938 447.402344 202.5 447.546875 202.492188 C 447.609375 202.484375 447.632812 202.5 447.667969 202.535156 C 447.835938 202.722656 447.949219 203.324219 447.835938 203.960938 C 447.402344 206.398438 447.210938 208.886719 447.261719 211.359375 C 447.277344 212.152344 447.402344 213.125 448.234375 213.597656 C 449.382812 214.253906 450.605469 213.234375 451.003906 212.898438 L 455.714844 208.976562 L 454.527344 212.761719 C 454.367188 213.273438 454.167969 213.90625 454.292969 214.574219 C 454.542969 215.945312 456.023438 216.691406 457.253906 216.597656 C 458.449219 216.503906 459.464844 215.828125 460.296875 215.179688 C 461.023438 214.613281 461.808594 213.902344 462.582031 213.105469 C 462.4375 213.820312 462.367188 214.433594 462.375 214.925781 C 462.414062 217.773438 463.882812 220.90625 466.613281 221.375 C 466.980469 221.441406 467.355469 221.453125 467.734375 221.414062 C 467.734375 221.664062 467.75 221.910156 467.777344 222.148438 C 468.035156 224.386719 469.515625 226.308594 471.460938 226.933594 C 473.453125 227.570312 475.777344 226.621094 476.667969 224.828125 C 476.683594 224.796875 476.738281 224.664062 476.789062 224.527344 C 476.839844 224.394531 476.832031 224.238281 476.769531 224.109375 C 476.707031 223.976562 476.597656 223.878906 476.457031 223.832031 L 476.347656 223.796875 C 476.082031 223.714844 475.785156 223.847656 475.683594 224.113281 C 475.640625 224.21875 475.601562 224.320312 475.589844 224.34375 C 474.953125 225.585938 473.230469 226.25 471.820312 225.804688 C 470.308594 225.320312 469.15625 223.796875 468.949219 222.015625 C 468.917969 221.726562 468.90625 221.425781 468.921875 221.125 C 470.941406 220.335938 472.285156 218.324219 472.769531 217.492188 C 472.957031 217.167969 473.136719 216.816406 473.113281 216.378906 C 473.085938 215.972656 472.882812 215.609375 472.53125 215.351562 C 472.121094 215.054688 471.5625 214.945312 471.078125 215.074219 C 470.320312 215.273438 469.8125 215.878906 469.453125 216.382812 C 468.601562 217.585938 468.039062 218.910156 467.828125 220.207031 C 467.488281 220.269531 467.148438 220.269531 466.816406 220.210938 C 464.722656 219.847656 463.589844 217.269531 463.554688 214.910156 C 463.542969 214.007812 463.816406 212.695312 464.347656 211.113281 C 466.101562 208.933594 467.140625 206.992188 467.277344 205.609375 C 467.230469 205.054688 466.867188 204.824219 466.523438 204.84375 C 465.175781 204.910156 463.355469 210.335938 463.296875 210.535156 C 462.125 211.96875 460.804688 213.289062 459.574219 214.246094 C 458.878906 214.785156 458.050781 215.347656 457.164062 215.414062 C 456.457031 215.46875 455.578125 215.050781 455.453125 214.363281 C 455.382812 213.984375 455.527344 213.523438 455.65625 213.117188 L 457.636719 206.78125 C 457.691406 206.613281 457.628906 206.433594 457.480469 206.332031 C 457.335938 206.234375 457.144531 206.246094 457.011719 206.359375 L 450.25 211.988281 C 449.585938 212.539062 449.105469 212.738281 448.816406 212.566406 C 448.5 212.386719 448.453125 211.777344 448.441406 211.335938 C 448.394531 208.941406 448.578125 206.53125 448.996094 204.167969 C 449.128906 203.429688 449.089844 202.351562 448.546875 201.746094 C 448.265625 201.433594 447.890625 201.28125 447.464844 201.308594 C 446.957031 201.34375 446.585938 201.648438 446.257812 201.96875 C 445.144531 203.066406 444.214844 204.339844 443.488281 205.757812 C 443.445312 205.007812 443.363281 204.257812 443.242188 203.527344 C 443.171875 203.105469 443.066406 202.625 442.683594 202.265625 C 441.96875 201.597656 440.886719 201.886719 440.128906 202.464844 C 438.964844 203.359375 438.121094 204.640625 437.558594 206.371094 L 437.40625 204.222656 C 437.390625 203.988281 437.367188 203.667969 437.210938 203.367188 C 436.984375 202.929688 436.582031 202.667969 436.082031 202.636719 C 435.328125 202.589844 434.410156 203.085938 433.894531 203.820312 C 433.195312 204.820312 432.800781 205.957031 432.417969 207.0625 C 432.117188 207.917969 431.8125 208.804688 431.367188 209.574219 C 431.042969 210.140625 430.554688 210.652344 429.988281 211.027344 C 430.140625 210.667969 430.191406 210.289062 430.132812 209.914062 C 429.917969 208.585938 428.800781 207.925781 427.710938 207.28125 C 427.476562 207.140625 427.246094 207.003906 427.027344 206.859375 C 426.171875 206.296875 425.476562 205.40625 425.0625 204.347656 C 425.585938 203.042969 426.089844 201.707031 426.558594 200.382812 C 426.882812 199.46875 427.230469 198.144531 426.480469 197.195312 C 426.464844 197.175781 426.40625 197.113281 426.335938 197.039062 C 426.113281 196.804688 425.742188 196.796875 425.507812 197.015625 C 425.402344 197.117188 425.300781 197.210938 425.265625 197.25 C 423.960938 198.601562 423.308594 200.5625 423.472656 202.625 C 423.519531 203.203125 423.628906 203.773438 423.800781 204.320312 C 421.566406 209.84375 418.851562 215.207031 415.726562 220.28125 C 409.175781 223.433594 398.878906 229.683594 393.457031 246.75 C 390.050781 257.460938 389.183594 270.261719 387.359375 281.351562 C 394.003906 281.617188 400.636719 282.203125 407.226562 283.113281 C 406.984375 273.808594 408.355469 264.457031 411.261719 255.613281 C 412.746094 251.085938 414.742188 246.535156 418.289062 243.363281 C 421.757812 240.257812 426.386719 238.773438 430.96875 237.976562 C 434.515625 237.359375 438.199219 237.109375 441.683594 238.007812 C 449.386719 239.996094 454.757812 247.371094 456.707031 255.097656 C 458.65625 262.824219 457.808594 270.945312 456.96875 278.871094 C 456.878906 279.71875 456.808594 280.644531 457.289062 281.347656 C 458.050781 282.457031 459.675781 282.378906 461.007812 282.195312 C 467.476562 281.308594 474.003906 280.847656 480.53125 280.808594 C 481.253906 272.566406 479.820312 264.269531 479.144531 256.027344 " fill-opacity="1" fill-rule="nonzero"/></g><g clip-path="url(#id7)"><path fill="#f47263" d="M 474.234375 280.980469 C 469.8125 281.191406 465.394531 281.59375 461.007812 282.195312 C 459.675781 282.378906 458.050781 282.457031 457.289062 281.347656 C 456.808594 280.644531 456.878906 279.71875 456.96875 278.871094 C 457.808594 270.945312 458.65625 262.824219 456.707031 255.097656 C 454.757812 247.371094 449.386719 239.996094 441.683594 238.007812 C 438.199219 237.109375 434.515625 237.359375 430.96875 237.976562 C 426.386719 238.773438 421.757812 240.257812 418.289062 243.363281 C 414.742188 246.535156 412.746094 251.085938 411.261719 255.613281 C 408.355469 264.457031 406.984375 273.808594 407.226562 283.113281 C 402.207031 282.421875 397.160156 281.914062 392.101562 281.597656 C 392.441406 275.832031 393.785156 270.066406 395.082031 264.5 C 397.105469 255.824219 399.386719 247.101562 403.625 239.269531 C 407.859375 231.4375 414.273438 224.476562 422.546875 221.214844 C 428.28125 218.953125 434.628906 218.570312 440.746094 219.296875 C 443.796875 219.660156 446.847656 220.300781 449.632812 221.601562 C 451.78125 222.609375 453.738281 223.988281 455.601562 225.460938 C 464.507812 232.503906 471.738281 242.304688 473.496094 253.539062 C 474.023438 256.90625 474.054688 260.332031 474.085938 263.742188 C 474.136719 269.488281 474.1875 275.234375 474.234375 280.980469 " fill-opacity="1" fill-rule="nonzero"/></g><g clip-path="url(#id8)"><path fill="#fbc450" d="M 465.046875 281.707031 C 463.699219 281.851562 462.351562 282.011719 461.007812 282.195312 C 459.675781 282.378906 458.050781 282.457031 457.289062 281.347656 C 456.808594 280.644531 456.878906 279.71875 456.96875 278.871094 C 457.808594 270.945312 458.65625 262.824219 456.707031 255.097656 C 454.757812 247.371094 449.386719 239.996094 441.683594 238.007812 C 438.199219 237.109375 434.515625 237.359375 430.96875 237.976562 C 426.386719 238.773438 421.757812 240.257812 418.289062 243.363281 C 414.742188 246.535156 412.746094 251.085938 411.261719 255.613281 C 408.355469 264.457031 406.984375 273.808594 407.226562 283.113281 C 404.261719 282.703125 401.285156 282.371094 398.304688 282.089844 C 398.035156 276.148438 400.054688 269.480469 401.691406 264.09375 C 402.824219 260.351562 404.144531 256.671875 405.476562 252.996094 C 406.324219 250.65625 407.175781 248.308594 408.300781 246.085938 C 411.785156 239.222656 417.960938 233.777344 425.199219 231.191406 C 432.433594 228.601562 440.65625 228.894531 447.691406 231.996094 C 450.238281 233.121094 452.664062 234.621094 454.523438 236.695312 C 455.90625 238.230469 456.941406 240.039062 457.964844 241.835938 C 459.21875 244.027344 460.476562 246.226562 461.417969 248.574219 C 463.011719 252.542969 463.65625 256.828125 464.125 261.082031 C 464.773438 267.035156 465.101562 273.023438 465.097656 279.011719 C 465.097656 279.910156 465.085938 280.808594 465.046875 281.707031 Z M 476.484375 219.445312 C 475.761719 219.207031 476.101562 218.074219 476.824219 218.3125 C 477.941406 218.679688 479.074219 218.957031 480.234375 219.15625 C 480.984375 219.28125 480.632812 220.414062 479.894531 220.289062 C 478.734375 220.09375 477.601562 219.8125 476.484375 219.445312 Z M 476.804688 215.90625 C 476.070312 216.109375 475.796875 214.957031 476.53125 214.757812 C 477.789062 214.414062 479.035156 214.023438 480.265625 213.589844 C 480.984375 213.335938 481.253906 214.488281 480.542969 214.742188 C 479.3125 215.175781 478.066406 215.5625 476.804688 215.90625 Z M 475.402344 212.929688 C 475.074219 213.617188 474.078125 212.980469 474.402344 212.300781 C 474.917969 211.21875 475.515625 210.191406 476.195312 209.207031 C 476.628906 208.585938 477.632812 209.210938 477.195312 209.839844 C 476.515625 210.824219 475.917969 211.851562 475.402344 212.929688 Z M 471.390625 217.363281 C 471.632812 217.019531 471.960938 216.613281 472.351562 216.511719 C 472.4375 216.488281 472.546875 216.492188 472.644531 216.523438 C 472.65625 216.527344 472.667969 216.53125 472.675781 216.535156 C 472.726562 216.554688 472.769531 216.574219 472.808594 216.601562 C 472.902344 216.671875 472.902344 216.722656 472.902344 216.738281 C 472.910156 216.863281 472.785156 217.074219 472.71875 217.191406 C 472 218.429688 471.078125 219.417969 470.121094 219.992188 C 470.363281 219.101562 470.800781 218.195312 471.390625 217.363281 Z M 467.460938 205.980469 C 467.335938 206.953125 466.546875 208.433594 465.417969 209.984375 C 466.175781 208.03125 467.0625 206.332031 467.460938 205.980469 Z M 426.417969 200.28125 C 426.15625 201.019531 425.882812 201.761719 425.605469 202.496094 C 425.566406 201.125 425.960938 199.800781 426.71875 198.800781 C 426.746094 199.289062 426.5625 199.871094 426.417969 200.28125 Z M 477.742188 224.402344 C 477.679688 224.269531 477.570312 224.171875 477.429688 224.125 L 477.320312 224.089844 C 477.054688 224.007812 476.757812 224.140625 476.652344 224.410156 C 476.613281 224.511719 476.574219 224.613281 476.5625 224.640625 C 475.925781 225.878906 474.203125 226.542969 472.789062 226.097656 C 471.28125 225.617188 470.128906 224.09375 469.921875 222.308594 C 469.890625 222.019531 469.878906 221.71875 469.890625 221.417969 C 471.914062 220.628906 473.257812 218.617188 473.742188 217.785156 C 473.925781 217.464844 474.109375 217.113281 474.082031 216.671875 C 474.058594 216.265625 473.851562 215.902344 473.503906 215.644531 C 473.09375 215.347656 472.535156 215.242188 472.050781 215.367188 C 471.292969 215.566406 470.785156 216.171875 470.425781 216.679688 C 469.574219 217.882812 469.011719 219.203125 468.800781 220.503906 C 468.460938 220.5625 468.121094 220.5625 467.789062 220.503906 C 465.695312 220.140625 464.558594 217.5625 464.527344 215.203125 C 464.515625 214.304688 464.789062 212.988281 465.320312 211.410156 C 467.074219 209.230469 468.113281 207.285156 468.25 205.902344 C 468.203125 205.347656 467.835938 205.117188 467.496094 205.136719 C 466.148438 205.203125 464.328125 210.628906 464.265625 210.828125 C 463.097656 212.265625 461.777344 213.582031 460.546875 214.539062 C 459.851562 215.078125 459.023438 215.640625 458.136719 215.710938 C 457.429688 215.765625 456.550781 215.34375 456.425781 214.65625 C 456.355469 214.277344 456.5 213.816406 456.628906 213.410156 L 458.609375 207.074219 C 458.664062 206.90625 458.601562 206.726562 458.453125 206.628906 C 458.308594 206.53125 458.117188 206.539062 457.984375 206.652344 L 451.222656 212.28125 C 450.558594 212.835938 450.078125 213.03125 449.789062 212.863281 C 449.472656 212.679688 449.421875 212.070312 449.414062 211.628906 C 449.367188 209.234375 449.550781 206.824219 449.96875 204.464844 C 450.101562 203.722656 450.0625 202.644531 449.515625 202.039062 C 449.238281 201.726562 448.863281 201.574219 448.4375 201.605469 C 447.929688 201.636719 447.554688 201.941406 447.230469 202.261719 C 446.117188 203.359375 445.1875 204.632812 444.460938 206.050781 C 444.417969 205.300781 444.335938 204.554688 444.214844 203.820312 C 444.144531 203.398438 444.039062 202.917969 443.65625 202.558594 C 442.941406 201.890625 441.859375 202.179688 441.101562 202.757812 C 439.933594 203.65625 439.09375 204.933594 438.53125 206.664062 L 438.378906 204.515625 C 438.363281 204.285156 438.339844 203.960938 438.183594 203.660156 C 437.953125 203.222656 437.554688 202.964844 437.054688 202.929688 C 436.300781 202.882812 435.378906 203.378906 434.867188 204.113281 C 434.167969 205.113281 433.773438 206.25 433.390625 207.355469 C 433.089844 208.210938 432.785156 209.097656 432.339844 209.867188 C 432.011719 210.433594 431.527344 210.945312 430.960938 211.320312 C 431.113281 210.960938 431.164062 210.582031 431.105469 210.210938 C 430.890625 208.878906 429.773438 208.21875 428.683594 207.574219 C 428.449219 207.4375 428.214844 207.300781 428 207.15625 C 427.144531 206.589844 426.449219 205.699219 426.035156 204.644531 C 426.558594 203.335938 427.0625 202.003906 427.53125 200.675781 C 427.855469 199.761719 428.203125 198.4375 427.453125 197.488281 C 427.4375 197.46875 427.378906 197.40625 427.308594 197.332031 C 427.085938 197.101562 426.714844 197.089844 426.480469 197.308594 C 426.375 197.410156 426.273438 197.507812 426.238281 197.542969 C 424.933594 198.894531 424.28125 200.855469 424.445312 202.917969 C 424.492188 203.5 424.601562 204.066406 424.773438 204.613281 C 422.351562 210.601562 419.367188 216.398438 415.90625 221.84375 L 415.625 222.28125 C 415.441406 222.5625 415.523438 222.941406 415.804688 223.125 C 415.851562 223.15625 415.902344 223.175781 415.953125 223.191406 C 416.042969 223.21875 416.140625 223.226562 416.238281 223.203125 C 416.386719 223.171875 416.515625 223.082031 416.597656 222.953125 C 416.753906 222.710938 416.960938 222.386719 417.066406 222.21875 C 420.292969 217.109375 423.109375 211.691406 425.4375 206.105469 C 425.929688 206.9375 426.589844 207.640625 427.347656 208.144531 C 427.585938 208.300781 427.835938 208.449219 428.09375 208.601562 C 428.9375 209.097656 429.8125 209.613281 429.9375 210.398438 C 430 210.785156 429.75 211.207031 429.304688 211.46875 C 428.976562 211.660156 428.621094 211.71875 428.328125 211.628906 C 428.300781 211.621094 428.28125 211.621094 428.15625 211.542969 C 427.917969 211.394531 427.601562 211.441406 427.421875 211.660156 L 427.375 211.714844 C 427.277344 211.832031 427.234375 211.984375 427.253906 212.132812 C 427.273438 212.28125 427.351562 212.417969 427.472656 212.507812 C 427.765625 212.722656 427.8125 212.75 427.835938 212.757812 C 428.425781 213.074219 429.097656 213.167969 429.828125 213.042969 C 431.191406 212.804688 432.609375 211.769531 433.363281 210.457031 C 433.863281 209.589844 434.1875 208.652344 434.503906 207.742188 C 434.863281 206.71875 435.230469 205.65625 435.835938 204.792969 C 436.097656 204.414062 436.644531 204.089844 436.980469 204.113281 C 437.074219 204.117188 437.101562 204.144531 437.136719 204.207031 C 437.179688 204.292969 437.191406 204.457031 437.203125 204.601562 L 437.667969 211.15625 C 437.6875 211.457031 437.933594 211.691406 438.238281 211.699219 C 438.566406 211.703125 438.84375 211.460938 438.878906 211.132812 L 438.910156 210.882812 C 439.21875 208.25 439.726562 205.304688 441.820312 203.699219 C 442.214844 203.398438 442.6875 203.269531 442.851562 203.425781 C 442.960938 203.527344 443.011719 203.78125 443.050781 204.011719 C 443.324219 205.675781 443.386719 207.371094 443.234375 209.050781 C 443.226562 209.144531 443.207031 209.3125 443.1875 209.476562 C 443.152344 209.792969 443.375 210.085938 443.6875 210.140625 C 444 210.195312 444.304688 209.996094 444.378906 209.683594 C 444.433594 209.457031 444.5 209.183594 444.542969 209.039062 C 445.179688 206.820312 446.429688 204.710938 448.058594 203.105469 C 448.160156 203.007812 448.375 202.792969 448.519531 202.785156 C 448.582031 202.78125 448.605469 202.792969 448.640625 202.828125 C 448.808594 203.019531 448.921875 203.617188 448.804688 204.257812 C 448.375 206.691406 448.183594 209.179688 448.234375 211.652344 C 448.25 212.445312 448.375 213.417969 449.207031 213.890625 C 450.355469 214.546875 451.578125 213.527344 451.976562 213.191406 L 456.683594 209.269531 L 455.5 213.058594 C 455.339844 213.566406 455.140625 214.203125 455.265625 214.871094 C 455.515625 216.238281 456.996094 216.984375 458.226562 216.890625 C 459.421875 216.796875 460.4375 216.121094 461.269531 215.472656 C 461.996094 214.910156 462.78125 214.195312 463.554688 213.402344 C 463.410156 214.117188 463.339844 214.726562 463.347656 215.222656 C 463.386719 218.070312 464.851562 221.203125 467.585938 221.671875 C 467.953125 221.734375 468.328125 221.746094 468.707031 221.710938 C 468.707031 221.957031 468.722656 222.203125 468.75 222.441406 C 469.007812 224.679688 470.488281 226.601562 472.433594 227.226562 C 474.425781 227.863281 476.75 226.917969 477.640625 225.125 C 477.65625 225.089844 477.707031 224.960938 477.761719 224.820312 C 477.8125 224.6875 477.804688 224.535156 477.742188 224.402344 Z M 457.914062 199.730469 C 457.914062 199.730469 457.917969 199.730469 457.917969 199.730469 L 457.960938 199.746094 C 458.101562 199.796875 458.117188 199.800781 458.183594 200.179688 C 458.230469 200.453125 458.296875 200.824219 458.539062 201.195312 C 458.558594 201.226562 458.648438 201.335938 458.746094 201.453125 C 458.855469 201.582031 459.015625 201.652344 459.183594 201.648438 C 459.351562 201.648438 459.503906 201.570312 459.609375 201.4375 L 461.351562 199.226562 C 460.988281 200.992188 460.0625 202.691406 458.765625 203.960938 L 457.761719 201.617188 C 457.582031 201.191406 457.355469 200.660156 457.425781 200.222656 C 457.457031 200.050781 457.578125 199.867188 457.726562 199.773438 C 457.777344 199.742188 457.855469 199.710938 457.914062 199.730469 Z M 456.675781 202.082031 L 456.859375 202.007812 L 456.679688 202.085938 L 458.035156 205.265625 C 458.097656 205.410156 458.214844 205.515625 458.363281 205.558594 C 458.375 205.5625 458.382812 205.566406 458.394531 205.566406 C 458.554688 205.605469 458.71875 205.566406 458.847656 205.460938 C 459.050781 205.292969 459.285156 205.09375 459.363281 205.023438 C 461.066406 203.457031 462.210938 201.34375 462.578125 199.070312 C 462.609375 198.902344 462.671875 198.503906 462.433594 198.15625 C 462.261719 197.90625 462.003906 197.765625 461.703125 197.757812 C 461.199219 197.742188 460.730469 198.101562 460.460938 198.445312 L 459.328125 199.882812 C 459.3125 199.792969 459.296875 199.714844 459.285156 199.675781 C 459.199219 199.324219 459 198.832031 458.273438 198.601562 C 457.707031 198.429688 457.078125 198.644531 456.640625 199.183594 C 456.445312 199.421875 456.316406 199.707031 456.265625 200.015625 C 456.128906 200.796875 456.433594 201.511719 456.675781 202.082031 " fill-opacity="1" fill-rule="nonzero"/></g></svg>